HIERARCHY
ROOT Hips
{
	OFFSET -0.001795 -0.223333 0.028219
	CHANNELS 6 Xposition Yposition Zposition Zrotation Yrotation Xrotation 
	JOINT LeftUpLeg
	{
		OFFSET 0.069520 -0.091406 -0.006815
		CHANNELS 3 Zrotation Yrotation Xrotation
		JOINT LeftLeg
		{
			OFFSET 0.034277 -0.375199 -0.004496
			CHANNELS 3 Zrotation Yrotation Xrotation
			JOINT LeftFoot
			{
				OFFSET -0.013596 -0.397961 -0.043693
				CHANNELS 3 Zrotation Yrotation Xrotation
				JOINT LeftToe
				{
					OFFSET 0.026358 -0.055791 0.119288
					CHANNELS 3 Zrotation Yrotation Xrotation
					End Site
					{
						OFFSET 0.000000 0.000000 0.000000
					}
				}
			}
		}
	}
	JOINT RightUpLeg
	{
		OFFSET -0.067670 -0.090522 -0.004320
		CHANNELS 3 Zrotation Yrotation Xrotation
		JOINT RightLeg
		{
			OFFSET -0.038290 -0.382569 -0.008850
			CHANNELS 3 Zrotation Yrotation Xrotation
			JOINT RightFoot
			{
				OFFSET 0.015774 -0.398415 -0.042312
				CHANNELS 3 Zrotation Yrotation Xrotation
				JOINT RightToe
				{
					OFFSET -0.025372 -0.048144 0.123348
					CHANNELS 3 Zrotation Yrotation Xrotation
					End Site
					{
						OFFSET 0.000000 0.000000 0.000000
					}
				}
			}
		}
	}
	JOINT Spine
	{
		OFFSET -0.002533 0.108963 -0.026696
		CHANNELS 3 Zrotation Yrotation Xrotation
		JOINT Spine1
		{
			OFFSET 0.005487 0.135180 0.001092
			CHANNELS 3 Zrotation Yrotation Xrotation
			JOINT Spine2
			{
				OFFSET 0.001457 0.052922 0.025425
				CHANNELS 3 Zrotation Yrotation Xrotation
				JOINT Neck
				{
					OFFSET -0.002778 0.213870 -0.042857
					CHANNELS 3 Zrotation Yrotation Xrotation
					JOINT Head
					{
						OFFSET 0.005152 0.064970 0.051349
						CHANNELS 3 Zrotation Yrotation Xrotation
						End Site
						{
							OFFSET 0.000000 0.000000 0.000000
						}
					}
				}
				JOINT LeftShoulder
				{
					OFFSET 0.078845 0.121749 -0.034090
					CHANNELS 3 Zrotation Yrotation Xrotation
					JOINT LeftArm
					{
						OFFSET 0.090977 0.030469 -0.008868
						CHANNELS 3 Zrotation Yrotation Xrotation
						JOINT LeftForeArm
						{
							OFFSET 0.259612 -0.012772 -0.027456
							CHANNELS 3 Zrotation Yrotation Xrotation
							JOINT LeftHand
							{
								OFFSET 0.249234 0.008986 -0.001171
								CHANNELS 3 Zrotation Yrotation Xrotation
								End Site
								{
									OFFSET 0.000000 0.000000 0.000000
								}
							}
						}
					}
				}
				JOINT RightShoulder
				{
					OFFSET -0.081759 0.118833 -0.038615
					CHANNELS 3 Zrotation Yrotation Xrotation
					JOINT RightArm
					{
						OFFSET -0.096012 0.032551 -0.009143
						CHANNELS 3 Zrotation Yrotation Xrotation
						JOINT RightForeArm
						{
							OFFSET -0.253742 -0.013329 -0.021401
							CHANNELS 3 Zrotation Yrotation Xrotation
							JOINT RightHand
							{
								OFFSET -0.255298 0.007772 -0.005559
								CHANNELS 3 Zrotation Yrotation Xrotation
								End Site
								{
									OFFSET 0.000000 0.000000 0.000000
								}
							}
						}
					}
				}
			}
		}
	}
}
MOTION
Frames: 5
Frame Time: 0.050000
0.000000 0.939966 0.000000 -1.797838 -18.629646 3.385519 13.613958 1.254579 -13.258863 -3.105864 0.464355 -1.876362 22.872030 29.668648 41.299427 0.000000 0.000000 0.000000 -3.956577 0.399578 -2.322432 6.712294 -0.379199 2.244704 -14.928201 -30.308418 18.211645 0.000000 0.000000 0.000000 -5.176311 0.993852 21.002271 5.092574 -1.171884 -21.519003 2.889322 10.421128 26.843597 -9.810687 7.951119 -19.394922 0.000000 0.000000 0.000000 -32.964878 -10.287167 5.524865 -41.177324 -22.909906 0.260959 -3.477330 -33.981296 2.823068 0.000000 0.000000 0.000000 25.648294 21.793309 11.734213 50.118102 21.252961 1.622771 -1.717073 31.351297 0.907970 0.000000 0.000000 0.000000 
-0.000143 0.939528 0.000534 -2.508807 -19.815461 3.974556 14.534429 1.447849 -12.603113 -3.154734 0.482814 -3.113410 23.773987 30.146346 42.489721 0.000000 0.000000 0.000000 -2.864299 0.360977 -2.551506 5.810497 -0.298394 1.539054 -14.494496 -29.758016 18.329541 0.000000 0.000000 0.000000 -4.772294 0.964466 21.081916 4.794572 -1.142532 -21.147960 3.631766 11.669936 26.757025 -13.129859 10.219333 -19.461737 0.000000 0.000000 0.000000 -33.415234 -8.933116 4.303259 -41.329032 -22.949073 0.363864 -3.613571 -33.056223 2.772459 0.000000 0.000000 0.000000 24.122996 21.218600 11.289690 52.508472 21.327681 1.886482 -3.878193 33.970103 0.466534 0.000000 0.000000 0.000000 
-0.000117 0.940385 0.001623 -2.084079 -18.430354 3.714160 14.236258 1.314981 -12.746555 -3.461775 0.513458 -2.777870 21.778172 28.848632 40.356834 0.000000 0.000000 0.000000 -3.137197 0.336430 -2.040478 5.779387 -0.319318 1.476286 -14.991002 -30.342839 18.596926 0.000000 0.000000 0.000000 -3.789887 0.639779 20.541671 2.791497 -0.689235 -20.526139 3.640697 11.046942 25.645249 -11.954823 9.567553 -17.724668 0.000000 0.000000 0.000000 -32.196775 -9.296452 4.446858 -41.192358 -22.087358 0.180683 -5.180253 -31.662352 3.040717 0.000000 0.000000 0.000000 24.883810 21.312638 11.479204 51.667061 21.077164 1.811864 -3.606132 32.193483 0.462520 0.000000 0.000000 0.000000 
-0.000023 0.941058 0.002928 -2.156926 -19.633211 4.124709 14.811412 1.469203 -12.430543 -3.913620 0.580350 -3.440868 22.296809 28.909817 41.913823 0.000000 0.000000 0.000000 -2.770220 0.358237 -2.576071 5.227708 -0.267160 1.755989 -14.510881 -29.806539 17.786729 0.000000 0.000000 0.000000 -4.968665 0.895728 19.724768 3.896517 -0.954286 -20.815549 3.724405 12.383770 26.478548 -13.015262 10.419389 -17.495870 0.000000 0.000000 0.000000 -31.546801 -9.080516 4.049032 -42.097527 -21.607687 0.078919 -4.650851 -31.665342 2.884351 0.000000 0.000000 0.000000 25.327638 21.663222 11.995657 50.934970 20.712946 1.480578 -3.311579 32.834961 0.569716 0.000000 0.000000 0.000000 
0.000053 0.941860 0.004404 -2.075964 -19.461317 4.146274 14.672339 1.449835 -12.645695 -3.410855 0.512168 -2.251412 20.086812 27.209562 39.631871 0.000000 0.000000 0.000000 -2.827786 0.357111 -2.519494 5.240507 -0.270404 1.654401 -14.813330 -30.149725 18.331685 0.000000 0.000000 0.000000 -4.885581 0.841295 19.309500 2.838157 -0.740194 -20.099113 4.059019 12.542661 25.731482 -12.801746 10.177018 -17.791440 0.000000 0.000000 0.000000 -30.152201 -8.849573 3.727690 -43.636508 -20.951475 0.065778 -4.370751 -31.657443 2.802407 0.000000 0.000000 0.000000 25.043910 20.886045 11.526151 51.410779 20.516451 1.510561 -2.411449 33.606790 0.858069 0.000000 0.000000 0.000000 
